<?xml version="1.0" encoding="utf-8"?>
<!-- Generator: Adobe Illustrator 15.0.2, SVG Export Plug-In . SVG Version: 6.00 Build 0)  -->
<!DOCTYPE svg PUBLIC "-//W3C//DTD SVG 1.1//EN" "http://www.w3.org/Graphics/SVG/1.1/DTD/svg11.dtd">
<svg version="1.1" id="Layer_1" xmlns="http://www.w3.org/2000/svg" xmlns:xlink="http://www.w3.org/1999/xlink" x="0px" y="0px"
	 width="24px" height="24px" viewBox="0 0 24 24" enable-background="new 0 0 24 24" xml:space="preserve">
<g>
	<path fill="#BABABA" d="M14.121,9.572c-0.5,0-0.908-0.409-0.908-0.912V3.5H5.625c-0.502,0-0.91,0.41-0.91,0.912v15.175
		c0,0.506,0.408,0.913,0.91,0.913h12.75c0.502,0,0.91-0.407,0.91-0.913V9.572H14.121z M12.036,16.875
		c-0.252,0-0.503-0.052-0.745-0.137c-0.725-0.256-1.278-0.975-1.278-1.505c0-0.218,0.263-0.414,0.47-0.414c0.037,0,0.073,0,0.109,0
		h0.045c0.238,0,0.492,0.187,0.564,0.413c0,0,0.205,0.646,0.855,0.646c0.483,0,0.839-0.293,0.839-0.797
		c0-1.217-2.654-0.587-2.654-2.644c0-0.997,0.871-1.679,1.825-1.679c0.856,0,1.732,0.693,1.732,1.295
		c0,0.307-0.472,0.405-0.472,0.405h-0.135c-0.237,0-0.51-0.179-0.605-0.398c0,0-0.132-0.305-0.572-0.305
		c-0.367,0-0.682,0.23-0.682,0.619c0,0.514,0.504,0.629,0.902,0.756c0.955,0.293,1.752,0.766,1.752,1.887
		C13.987,16.161,13.147,16.875,12.036,16.875z"/>
	<path fill="#BABABA" d="M18.641,8.016L14.77,4.145c-0.096-0.095-0.209-0.181-0.342-0.265v4.477h4.477
		C18.82,8.224,18.734,8.11,18.641,8.016z"/>
</g>
</svg>
