<?xml version="1.0" encoding="UTF-8" standalone="no"?>
<svg width="24px" height="48px" viewBox="0 0 24 48" version="1.1" xmlns="http://www.w3.org/2000/svg" xmlns:xlink="http://www.w3.org/1999/xlink" xmlns:sketch="http://www.bohemiancoding.com/sketch/ns">
    <title>Brackets Snippets</title>
    <description>Created with Sketch (http://www.bohemiancoding.com/sketch)</description>
    <defs></defs>
    <g id="Bottom" stroke="none" stroke-width="1" fill="none" fill-rule="evenodd" sketch:type="MSPage">
        <path d="M5.99253976,3 C4.33980569,3 3,4.35292554 3,5.99253976 L3,18.0074602 C3,19.6601943 4.35292554,21 5.99253976,21 L18.0074602,21 C19.6601943,21 21,19.6470745 21,18.0074602 L21,5.99253976 C21,4.33980569 19.6470745,3 18.0074602,3 L5.99253976,3 Z M16.2213333,14.73 C16.2213333,13.2 15.5913333,12.174 12.7113333,10.986 C10.9113333,10.23 10.5693333,9.744 10.5693333,9.096 C10.5693333,8.61 10.8753333,7.746 12.5133333,7.746 C13.5753333,7.746 14.6733333,8.106 15.4473333,8.574 C15.5373333,8.628 15.6093333,8.574 15.6093333,8.502 L15.6093333,6.864 C15.6093333,6.756 15.5733333,6.702 15.5013333,6.648 C14.8713333,6.288 13.8273333,6 12.5493333,6 C9.83133333,6 8.40933333,7.548 8.40933333,9.294 C8.40933333,11.004 9.23733333,11.922 11.7033333,12.966 C13.6473333,13.794 14.0073333,14.19 14.0073333,14.946 C14.0073333,15.648 13.4853333,16.278 12.0813333,16.278 C10.8033333,16.278 9.45333333,15.81 8.46333333,15.108 C8.39133333,15.054 8.31933333,15.108 8.31933333,15.198 L8.31933333,16.908 C8.31933333,17.034 8.33733333,17.106 8.44533333,17.178 C9.32733333,17.79 10.6953333,18.096 11.9913333,18.096 C14.6013333,18.096 16.2213333,16.8 16.2213333,14.73 Z" id="Brackets-Snippets" fill="#BBBBBB" sketch:type="MSShapeGroup"></path>
        <path d="M5.99253976,27 C4.33980569,27 3,28.3529255 3,29.9925398 L3,42.0074602 C3,43.6601943 4.35292554,45 5.99253976,45 L18.0074602,45 C19.6601943,45 21,43.6470745 21,42.0074602 L21,29.9925398 C21,28.3398057 19.6470745,27 18.0074602,27 L5.99253976,27 Z M16.2213333,38.73 C16.2213333,37.2 15.5913333,36.174 12.7113333,34.986 C10.9113333,34.23 10.5693333,33.744 10.5693333,33.096 C10.5693333,32.61 10.8753333,31.746 12.5133333,31.746 C13.5753333,31.746 14.6733333,32.106 15.4473333,32.574 C15.5373333,32.628 15.6093333,32.574 15.6093333,32.502 L15.6093333,30.864 C15.6093333,30.756 15.5733333,30.702 15.5013333,30.648 C14.8713333,30.288 13.8273333,30 12.5493333,30 C9.83133333,30 8.40933333,31.548 8.40933333,33.294 C8.40933333,35.004 9.23733333,35.922 11.7033333,36.966 C13.6473333,37.794 14.0073333,38.19 14.0073333,38.946 C14.0073333,39.648 13.4853333,40.278 12.0813333,40.278 C10.8033333,40.278 9.45333333,39.81 8.46333333,39.108 C8.39133333,39.054 8.31933333,39.108 8.31933333,39.198 L8.31933333,40.908 C8.31933333,41.034 8.33733333,41.106 8.44533333,41.178 C9.32733333,41.79 10.6953333,42.096 11.9913333,42.096 C14.6013333,42.096 16.2213333,40.8 16.2213333,38.73 Z" id="Brackets-Snippets" fill="#78B2F2" sketch:type="MSShapeGroup"></path>
    </g>
</svg>