<?xml version="1.0" encoding="utf-8"?>
<!-- Generator: Adobe Illustrator 17.1.0, SVG Export Plug-In . SVG Version: 6.00 Build 0)  -->
<!DOCTYPE svg PUBLIC "-//W3C//DTD SVG 1.1//EN" "http://www.w3.org/Graphics/SVG/1.1/DTD/svg11.dtd">
<svg version="1.1" id="Layer_1" xmlns="http://www.w3.org/2000/svg" xmlns:xlink="http://www.w3.org/1999/xlink" x="0px" y="0px"
	 width="24px" height="48px" viewBox="0 0 24 48" style="enable-background:new 0 0 24 48;" xml:space="preserve">
<g>
	<path fill="#BBBBBB" d="M13.3,16c-0.4-0.4-0.9-0.7-1.4-0.8l-0.5-1.5l0.6,0.6l6.5-2.5L21,9.3l-8.1,2.1h-0.2l2-8.2l-0.4,0.2l-2.2,2.1
		l-2.3,6.2l0.3,0.8l-1.3-0.3H8.7l0,0c-0.1-0.5-0.4-1.1-0.8-1.5c-1.1-1.1-3-1.1-4.1,0s-1.1,3,0,4.1s3,1.1,4.1,0
		c0.3-0.3,0.6-0.8,0.7-1.2h1.5l0.2,1.6c-0.5,0.1-0.9,0.4-1.3,0.7c-1.1,1.1-1.1,3,0,4.1s3,1.1,4.1,0C14.4,19,14.4,17.2,13.3,16z
		 M4.9,13.8c-0.6-0.6-0.6-1.4,0-2s1.4-0.6,2,0s0.6,1.4,0,2C6.3,14.4,5.4,14.4,4.9,13.8z M10.9,13.2c-0.3-0.3-0.3-0.9,0-1.2
		s0.9-0.3,1.2,0s0.3,0.9,0,1.2C11.8,13.5,11.2,13.5,10.9,13.2z M10.2,19.1c-0.6-0.6-0.6-1.4,0-2s1.4-0.6,2,0s0.6,1.4,0,2
		C11.6,19.6,10.7,19.6,10.2,19.1z"/>
	<path fill="#BBBBBB" d="M13.3,16c-0.4-0.4-0.9-0.7-1.4-0.8l-0.5-1.5l0.6,0.6l6.5-2.5L21,9.3l-8.1,2.1h-0.2l2-8.2l-0.4,0.2l-2.2,2.1
		l-2.3,6.2l0.3,0.8l-1.3-0.3H8.7l0,0c-0.1-0.5-0.4-1.1-0.8-1.5c-1.1-1.1-3-1.1-4.1,0s-1.1,3,0,4.1s3,1.1,4.1,0
		c0.3-0.3,0.6-0.8,0.7-1.2h1.5l0.2,1.6c-0.5,0.1-0.9,0.4-1.3,0.7c-1.1,1.1-1.1,3,0,4.1s3,1.1,4.1,0C14.4,19,14.4,17.2,13.3,16z
		 M4.9,13.8c-0.6-0.6-0.6-1.4,0-2s1.4-0.6,2,0s0.6,1.4,0,2C6.3,14.4,5.4,14.4,4.9,13.8z M10.9,13.2c-0.3-0.3-0.3-0.9,0-1.2
		s0.9-0.3,1.2,0s0.3,0.9,0,1.2C11.8,13.5,11.2,13.5,10.9,13.2z M10.2,19.1c-0.6-0.6-0.6-1.4,0-2s1.4-0.6,2,0s0.6,1.4,0,2
		C11.6,19.6,10.7,19.6,10.2,19.1z"/>
	<polygon fill="#BBBBBB" points="18.9,12.7 18.8,12.7 18.8,19.1 15.9,19.1 15.9,21 21,21 21,10.6 	"/>
	<polygon fill="#BBBBBB" points="21,3 15.9,3 15.9,4.9 18.8,4.9 18.8,8.8 21,8.3 	"/>
</g>
<g>
	<path fill="#78B2F2" d="M13.3,40c-0.4-0.4-0.9-0.7-1.4-0.8l-0.5-1.5l0.6,0.6l6.5-2.5l2.5-2.5l-8.1,2.1h-0.2l2-8.2l-0.4,0.2
		l-2.2,2.1l-2.3,6.2l0.3,0.8l-1.3-0.3H8.7l0,0c-0.1-0.5-0.4-1.1-0.8-1.5c-1.1-1.1-3-1.1-4.1,0s-1.1,3,0,4.1s3,1.1,4.1,0
		c0.3-0.3,0.6-0.8,0.7-1.2h1.5l0.2,1.6c-0.5,0.1-0.9,0.4-1.3,0.7c-1.1,1.1-1.1,3,0,4.1s3,1.1,4.1,0C14.4,43,14.4,41.2,13.3,40z
		 M4.9,37.8c-0.6-0.6-0.6-1.4,0-2s1.4-0.6,2,0s0.6,1.4,0,2C6.3,38.4,5.4,38.4,4.9,37.8z M10.9,37.2c-0.3-0.3-0.3-0.9,0-1.2
		s0.9-0.3,1.2,0s0.3,0.9,0,1.2C11.8,37.5,11.2,37.5,10.9,37.2z M10.2,43.1c-0.6-0.6-0.6-1.4,0-2s1.4-0.6,2,0s0.6,1.4,0,2
		C11.6,43.6,10.7,43.6,10.2,43.1z"/>
	<path fill="#78B2F2" d="M13.3,40c-0.4-0.4-0.9-0.7-1.4-0.8l-0.5-1.5l0.6,0.6l6.5-2.5l2.5-2.5l-8.1,2.1h-0.2l2-8.2l-0.4,0.2
		l-2.2,2.1l-2.3,6.2l0.3,0.8l-1.3-0.3H8.7l0,0c-0.1-0.5-0.4-1.1-0.8-1.5c-1.1-1.1-3-1.1-4.1,0s-1.1,3,0,4.1s3,1.1,4.1,0
		c0.3-0.3,0.6-0.8,0.7-1.2h1.5l0.2,1.6c-0.5,0.1-0.9,0.4-1.3,0.7c-1.1,1.1-1.1,3,0,4.1s3,1.1,4.1,0C14.4,43,14.4,41.2,13.3,40z
		 M4.9,37.8c-0.6-0.6-0.6-1.4,0-2s1.4-0.6,2,0s0.6,1.4,0,2C6.3,38.4,5.4,38.4,4.9,37.8z M10.9,37.2c-0.3-0.3-0.3-0.9,0-1.2
		s0.9-0.3,1.2,0s0.3,0.9,0,1.2C11.8,37.5,11.2,37.5,10.9,37.2z M10.2,43.1c-0.6-0.6-0.6-1.4,0-2s1.4-0.6,2,0s0.6,1.4,0,2
		C11.6,43.6,10.7,43.6,10.2,43.1z"/>
	<polygon fill="#78B2F2" points="18.9,36.7 18.8,36.7 18.8,43.1 15.9,43.1 15.9,45 21,45 21,34.6 	"/>
	<polygon fill="#78B2F2" points="21,27 15.9,27 15.9,28.9 18.8,28.9 18.8,32.8 21,32.3 	"/>
</g>
</svg>
